<svg width="80" height="80" viewBox="0 0 80 80" fill="none" xmlns="http://www.w3.org/2000/svg">
<path d="M40 0C17.944 0 0 17.944 0 40C0 62.056 17.944 80 40 80C62.056 80 80 62.056 80 40C80 17.944 62.056 0 40 0ZM71.724 36H60.668C60.1745 27.245 57.7252 18.7119 53.5 11.028C58.3968 13.3162 62.6354 16.8056 65.8217 21.1716C69.0079 25.5377 71.0383 30.6386 71.724 36ZM42.12 8.108C46.26 13.564 51.828 23.228 52.628 36H28.12C28.676 25.616 32.096 15.888 37.924 8.104C38.612 8.064 39.3 8 40 8C40.716 8 41.416 8.064 42.12 8.108ZM26.752 10.908C22.816 18.472 20.544 27.048 20.12 36H8.276C8.96707 30.5913 11.0265 25.4484 14.2596 21.0577C17.4926 16.6669 21.7923 13.1736 26.752 10.908ZM8.276 44H20.172C20.716 53.516 22.832 61.912 26.396 68.92C21.5248 66.6238 17.3109 63.1367 14.1438 58.7811C10.9768 54.4255 8.95865 49.3419 8.276 44ZM37.8 71.892C32.196 65.1 28.888 55.584 28.164 44H52.616C51.784 55.092 48.148 64.784 42.204 71.888C41.476 71.936 40.748 72 40 72C39.256 72 38.532 71.936 37.8 71.892ZM53.844 68.804C57.664 61.628 59.996 53.2 60.608 44H71.72C71.045 49.2971 69.0558 54.3413 65.9337 58.6734C62.8116 63.0055 58.6556 66.4881 53.844 68.804Z" fill="#E8DB99"/>
</svg>
